<mxfile host="app.diagrams.net" agent="Mozilla/5.0 (Windows NT 10.0; Win64; x64) AppleWebKit/537.36 (KHTML, like Gecko) Chrome/129.0.0.0 Safari/537.36" version="24.7.14">
  <diagram name="Page-1" id="xXbXhviyOrBce3a_dLEJ">
    <mxGraphModel dx="2140" dy="653" grid="1" gridSize="10" guides="1" tooltips="1" connect="1" arrows="1" fold="1" page="1" pageScale="1" pageWidth="827" pageHeight="1169" math="0" shadow="0">
      <root>
        <mxCell id="0" />
        <mxCell id="1" parent="0" />
        <mxCell id="6WYc1Q-pi8hKk1SLj2NP-27" style="edgeStyle=orthogonalEdgeStyle;rounded=0;orthogonalLoop=1;jettySize=auto;html=1;" parent="1" source="6WYc1Q-pi8hKk1SLj2NP-1" target="6WYc1Q-pi8hKk1SLj2NP-28" edge="1">
          <mxGeometry relative="1" as="geometry">
            <mxPoint x="180" y="195" as="targetPoint" />
          </mxGeometry>
        </mxCell>
        <mxCell id="6WYc1Q-pi8hKk1SLj2NP-1" value="client" style="rounded=0;whiteSpace=wrap;html=1;fillColor=#dae8fc;strokeColor=#6c8ebf;" parent="1" vertex="1">
          <mxGeometry x="250" y="165" width="120" height="60" as="geometry" />
        </mxCell>
        <mxCell id="6WYc1Q-pi8hKk1SLj2NP-32" style="edgeStyle=orthogonalEdgeStyle;rounded=0;orthogonalLoop=1;jettySize=auto;html=1;entryX=0;entryY=0.5;entryDx=0;entryDy=0;" parent="1" source="6WYc1Q-pi8hKk1SLj2NP-2" target="6WYc1Q-pi8hKk1SLj2NP-31" edge="1">
          <mxGeometry relative="1" as="geometry" />
        </mxCell>
        <mxCell id="6WYc1Q-pi8hKk1SLj2NP-2" value="client" style="rounded=0;whiteSpace=wrap;html=1;fillColor=#dae8fc;strokeColor=#6c8ebf;" parent="1" vertex="1">
          <mxGeometry x="580" y="165" width="120" height="60" as="geometry" />
        </mxCell>
        <mxCell id="6WYc1Q-pi8hKk1SLj2NP-3" value="client" style="rounded=0;whiteSpace=wrap;html=1;fillColor=#dae8fc;strokeColor=#6c8ebf;" parent="1" vertex="1">
          <mxGeometry x="414" y="165" width="120" height="60" as="geometry" />
        </mxCell>
        <mxCell id="6WYc1Q-pi8hKk1SLj2NP-20" style="edgeStyle=orthogonalEdgeStyle;rounded=0;orthogonalLoop=1;jettySize=auto;html=1;" parent="1" source="6WYc1Q-pi8hKk1SLj2NP-4" target="6WYc1Q-pi8hKk1SLj2NP-1" edge="1">
          <mxGeometry relative="1" as="geometry" />
        </mxCell>
        <mxCell id="6WYc1Q-pi8hKk1SLj2NP-21" style="edgeStyle=orthogonalEdgeStyle;rounded=0;orthogonalLoop=1;jettySize=auto;html=1;entryX=0.5;entryY=1;entryDx=0;entryDy=0;" parent="1" source="6WYc1Q-pi8hKk1SLj2NP-4" target="6WYc1Q-pi8hKk1SLj2NP-3" edge="1">
          <mxGeometry relative="1" as="geometry" />
        </mxCell>
        <mxCell id="6WYc1Q-pi8hKk1SLj2NP-22" style="edgeStyle=orthogonalEdgeStyle;rounded=0;orthogonalLoop=1;jettySize=auto;html=1;" parent="1" source="6WYc1Q-pi8hKk1SLj2NP-4" target="6WYc1Q-pi8hKk1SLj2NP-2" edge="1">
          <mxGeometry relative="1" as="geometry" />
        </mxCell>
        <mxCell id="BtrkUjkgntKWPuiUZITq-1" style="edgeStyle=orthogonalEdgeStyle;rounded=0;orthogonalLoop=1;jettySize=auto;html=1;entryX=0.5;entryY=1;entryDx=0;entryDy=0;" edge="1" parent="1" source="6WYc1Q-pi8hKk1SLj2NP-4" target="6WYc1Q-pi8hKk1SLj2NP-5">
          <mxGeometry relative="1" as="geometry" />
        </mxCell>
        <mxCell id="6WYc1Q-pi8hKk1SLj2NP-4" value="Broker" style="rounded=0;whiteSpace=wrap;html=1;fillColor=#d5e8d4;strokeColor=#82b366;" parent="1" vertex="1">
          <mxGeometry x="370" y="340" width="120" height="60" as="geometry" />
        </mxCell>
        <mxCell id="6WYc1Q-pi8hKk1SLj2NP-18" style="edgeStyle=orthogonalEdgeStyle;rounded=0;orthogonalLoop=1;jettySize=auto;html=1;entryX=0;entryY=0.5;entryDx=0;entryDy=0;" parent="1" source="6WYc1Q-pi8hKk1SLj2NP-5" target="6WYc1Q-pi8hKk1SLj2NP-4" edge="1">
          <mxGeometry relative="1" as="geometry" />
        </mxCell>
        <mxCell id="6WYc1Q-pi8hKk1SLj2NP-5" value="Controll Node" style="rounded=0;whiteSpace=wrap;html=1;fillColor=#ffe6cc;strokeColor=#d79b00;" parent="1" vertex="1">
          <mxGeometry x="60" y="285" width="120" height="60" as="geometry" />
        </mxCell>
        <mxCell id="6WYc1Q-pi8hKk1SLj2NP-30" style="edgeStyle=orthogonalEdgeStyle;rounded=0;orthogonalLoop=1;jettySize=auto;html=1;entryX=0.5;entryY=0;entryDx=0;entryDy=0;" parent="1" source="6WYc1Q-pi8hKk1SLj2NP-7" target="6WYc1Q-pi8hKk1SLj2NP-28" edge="1">
          <mxGeometry relative="1" as="geometry" />
        </mxCell>
        <mxCell id="6WYc1Q-pi8hKk1SLj2NP-7" value="Audio Part" style="ellipse;whiteSpace=wrap;html=1;fillColor=#f5f5f5;fontColor=#333333;strokeColor=#666666;" parent="1" vertex="1">
          <mxGeometry x="130" y="20" width="120" height="80" as="geometry" />
        </mxCell>
        <mxCell id="6WYc1Q-pi8hKk1SLj2NP-14" value="Audio Part" style="ellipse;whiteSpace=wrap;html=1;fillColor=#f5f5f5;fontColor=#333333;strokeColor=#666666;" parent="1" vertex="1">
          <mxGeometry x="294" y="20" width="120" height="80" as="geometry" />
        </mxCell>
        <mxCell id="6WYc1Q-pi8hKk1SLj2NP-15" value="Audio Part" style="ellipse;whiteSpace=wrap;html=1;fillColor=#f5f5f5;fontColor=#333333;strokeColor=#666666;" parent="1" vertex="1">
          <mxGeometry x="450" y="20" width="120" height="80" as="geometry" />
        </mxCell>
        <mxCell id="6WYc1Q-pi8hKk1SLj2NP-16" value="Audio Part" style="ellipse;whiteSpace=wrap;html=1;fillColor=#f5f5f5;fontColor=#333333;strokeColor=#666666;" parent="1" vertex="1">
          <mxGeometry x="610" y="20" width="120" height="80" as="geometry" />
        </mxCell>
        <mxCell id="6WYc1Q-pi8hKk1SLj2NP-34" style="edgeStyle=orthogonalEdgeStyle;rounded=0;orthogonalLoop=1;jettySize=auto;html=1;entryX=1;entryY=0.5;entryDx=0;entryDy=0;" parent="1" source="6WYc1Q-pi8hKk1SLj2NP-17" target="6WYc1Q-pi8hKk1SLj2NP-31" edge="1">
          <mxGeometry relative="1" as="geometry" />
        </mxCell>
        <mxCell id="6WYc1Q-pi8hKk1SLj2NP-17" value="Audio Part" style="ellipse;whiteSpace=wrap;html=1;fillColor=#f5f5f5;fontColor=#333333;strokeColor=#666666;" parent="1" vertex="1">
          <mxGeometry x="750" y="20" width="120" height="80" as="geometry" />
        </mxCell>
        <mxCell id="6WYc1Q-pi8hKk1SLj2NP-19" value="Start recognition process" style="text;html=1;align=center;verticalAlign=middle;whiteSpace=wrap;rounded=0;" parent="1" vertex="1">
          <mxGeometry x="200" y="275" width="60" height="30" as="geometry" />
        </mxCell>
        <mxCell id="6WYc1Q-pi8hKk1SLj2NP-23" value="Read start message&lt;div&gt;&lt;br&gt;&lt;/div&gt;" style="text;html=1;align=center;verticalAlign=middle;whiteSpace=wrap;rounded=0;" parent="1" vertex="1">
          <mxGeometry x="534" y="330" width="60" height="30" as="geometry" />
        </mxCell>
        <mxCell id="6WYc1Q-pi8hKk1SLj2NP-24" value="Read start message&lt;div&gt;&lt;br&gt;&lt;/div&gt;" style="text;html=1;align=center;verticalAlign=middle;whiteSpace=wrap;rounded=0;" parent="1" vertex="1">
          <mxGeometry x="480" y="245" width="60" height="30" as="geometry" />
        </mxCell>
        <mxCell id="6WYc1Q-pi8hKk1SLj2NP-25" value="Read start message&lt;div&gt;&lt;br&gt;&lt;/div&gt;" style="text;html=1;align=center;verticalAlign=middle;whiteSpace=wrap;rounded=0;" parent="1" vertex="1">
          <mxGeometry x="310" y="245" width="60" height="30" as="geometry" />
        </mxCell>
        <mxCell id="6WYc1Q-pi8hKk1SLj2NP-29" style="edgeStyle=orthogonalEdgeStyle;rounded=0;orthogonalLoop=1;jettySize=auto;html=1;entryX=0;entryY=0.5;entryDx=0;entryDy=0;" parent="1" source="6WYc1Q-pi8hKk1SLj2NP-28" target="6WYc1Q-pi8hKk1SLj2NP-7" edge="1">
          <mxGeometry relative="1" as="geometry" />
        </mxCell>
        <mxCell id="6WYc1Q-pi8hKk1SLj2NP-40" style="edgeStyle=orthogonalEdgeStyle;rounded=0;orthogonalLoop=1;jettySize=auto;html=1;entryX=1;entryY=0.5;entryDx=0;entryDy=0;" parent="1" source="6WYc1Q-pi8hKk1SLj2NP-28" target="6WYc1Q-pi8hKk1SLj2NP-39" edge="1">
          <mxGeometry relative="1" as="geometry" />
        </mxCell>
        <mxCell id="6WYc1Q-pi8hKk1SLj2NP-28" value="Launch recoginiser" style="rhombus;whiteSpace=wrap;html=1;fillColor=#60a917;fontColor=#ffffff;strokeColor=#2D7600;" parent="1" vertex="1">
          <mxGeometry x="90" y="155" width="80" height="80" as="geometry" />
        </mxCell>
        <mxCell id="6WYc1Q-pi8hKk1SLj2NP-33" style="edgeStyle=orthogonalEdgeStyle;rounded=0;orthogonalLoop=1;jettySize=auto;html=1;" parent="1" source="6WYc1Q-pi8hKk1SLj2NP-31" target="6WYc1Q-pi8hKk1SLj2NP-17" edge="1">
          <mxGeometry relative="1" as="geometry" />
        </mxCell>
        <mxCell id="6WYc1Q-pi8hKk1SLj2NP-37" style="edgeStyle=orthogonalEdgeStyle;rounded=0;orthogonalLoop=1;jettySize=auto;html=1;entryX=0.5;entryY=0;entryDx=0;entryDy=0;" parent="1" source="6WYc1Q-pi8hKk1SLj2NP-31" target="6WYc1Q-pi8hKk1SLj2NP-36" edge="1">
          <mxGeometry relative="1" as="geometry" />
        </mxCell>
        <mxCell id="6WYc1Q-pi8hKk1SLj2NP-31" value="Launch recoginiser" style="rhombus;whiteSpace=wrap;html=1;fillColor=#60a917;fontColor=#ffffff;strokeColor=#2D7600;" parent="1" vertex="1">
          <mxGeometry x="740" y="155" width="80" height="80" as="geometry" />
        </mxCell>
        <mxCell id="6WYc1Q-pi8hKk1SLj2NP-38" style="edgeStyle=orthogonalEdgeStyle;rounded=0;orthogonalLoop=1;jettySize=auto;html=1;entryX=0.5;entryY=1;entryDx=0;entryDy=0;" parent="1" source="6WYc1Q-pi8hKk1SLj2NP-36" target="6WYc1Q-pi8hKk1SLj2NP-4" edge="1">
          <mxGeometry relative="1" as="geometry">
            <Array as="points">
              <mxPoint x="780" y="420" />
              <mxPoint x="430" y="420" />
            </Array>
          </mxGeometry>
        </mxCell>
        <mxCell id="6WYc1Q-pi8hKk1SLj2NP-36" value="Post recognised part" style="rhombus;whiteSpace=wrap;html=1;fillColor=#a20025;fontColor=#ffffff;strokeColor=#6F0000;" parent="1" vertex="1">
          <mxGeometry x="740" y="275" width="80" height="80" as="geometry" />
        </mxCell>
        <mxCell id="6WYc1Q-pi8hKk1SLj2NP-41" style="edgeStyle=orthogonalEdgeStyle;rounded=0;orthogonalLoop=1;jettySize=auto;html=1;entryX=0.5;entryY=1;entryDx=0;entryDy=0;" parent="1" source="6WYc1Q-pi8hKk1SLj2NP-39" target="6WYc1Q-pi8hKk1SLj2NP-4" edge="1">
          <mxGeometry relative="1" as="geometry">
            <Array as="points">
              <mxPoint x="-10" y="420" />
              <mxPoint x="430" y="420" />
            </Array>
          </mxGeometry>
        </mxCell>
        <mxCell id="6WYc1Q-pi8hKk1SLj2NP-39" value="Post recognised part" style="rhombus;whiteSpace=wrap;html=1;fillColor=#a20025;fontColor=#ffffff;strokeColor=#6F0000;" parent="1" vertex="1">
          <mxGeometry x="-50" y="155" width="80" height="80" as="geometry" />
        </mxCell>
        <mxCell id="BtrkUjkgntKWPuiUZITq-2" value="Store recognised sheet" style="text;html=1;align=center;verticalAlign=middle;whiteSpace=wrap;rounded=0;" vertex="1" parent="1">
          <mxGeometry x="180" y="330" width="60" height="30" as="geometry" />
        </mxCell>
      </root>
    </mxGraphModel>
  </diagram>
</mxfile>
